<svg width="199" height="25" viewBox="0 0 199 25" fill="none" xmlns="http://www.w3.org/2000/svg">
<g id="img/iam-technologies-logo">
<path id="IAM" fill-rule="evenodd" clip-rule="evenodd" d="M0 0V25H2.51259V0H0ZM7.10653 24.9879H9.67837L17.498 3.1409L25.4385 24.9879H27.8896L18.8288 0.0177473H16.2378L7.10653 24.9879ZM57 0V25H54.4874V5.76087L45.478 25H44.0063L34.9969 5.83333V25H32.4843V0H34.8174L44.7601 21.3406L54.6669 0H57Z" fill="white"/>
<path id="Technologies" opacity="0.7" fill-rule="evenodd" clip-rule="evenodd" d="M75 8.65035V7.13986H82.5077V8.65035H79.7631V16.9021H77.7301V8.65035H75ZM91.2352 7.11189V8.62238H87.4305V11.1818H90.7995V12.6923H87.4305V15.3916H91.2352V16.9021H85.3829V7.11189H91.2352ZM94.0669 11.993C94.0669 10.5478 94.5679 9.35432 95.5699 8.41259C96.5719 7.47086 97.7989 7 99.2511 7C100.355 7 101.335 7.27039 102.192 7.81119C103.048 8.35198 103.661 9.11188 104.029 10.0909H101.575C101.12 9.2331 100.345 8.8042 99.2511 8.8042C98.3314 8.8042 97.5835 9.09557 97.0075 9.67832C96.4315 10.2611 96.1435 11.035 96.1435 12C96.1435 12.965 96.4315 13.7389 97.0075 14.3217C97.5835 14.9044 98.3314 15.1958 99.2511 15.1958C100.335 15.1958 101.11 14.7669 101.575 13.9091H104.029C103.661 14.8881 103.048 15.6457 102.192 16.1818C101.335 16.718 100.355 16.986 99.2511 16.986C97.7892 16.986 96.5597 16.5152 95.5626 15.5734C94.5654 14.6317 94.0669 13.4382 94.0669 11.993ZM113.511 7.13986H115.559V16.9021H113.511V12.7203H109.155V16.9021H107.107V7.13986H109.155V11.2098H113.511V7.13986ZM125.68 7.11189H127.728V16.9021H125.68L121.092 10.1329V16.9021H119.044V7.11189H121.092L125.68 13.8811V7.11189ZM138.924 11.993C138.924 11.0233 138.639 10.2494 138.067 9.67133C137.496 9.09324 136.751 8.8042 135.831 8.8042C134.911 8.8042 134.163 9.09557 133.587 9.67832C133.011 10.2611 132.723 11.035 132.723 12C132.723 12.965 133.011 13.7389 133.587 14.3217C134.163 14.9044 134.911 15.1958 135.831 15.1958C136.751 15.1958 137.496 14.9044 138.067 14.3217C138.639 13.7389 138.924 12.9627 138.924 11.993ZM132.143 15.5874C131.145 14.6457 130.647 13.4499 130.647 12C130.647 10.5501 131.148 9.35432 132.15 8.41259C133.152 7.47086 134.381 7 135.838 7C137.295 7 138.522 7.47086 139.52 8.41259C140.517 9.35432 141.015 10.5501 141.015 12C141.015 13.4499 140.517 14.6457 139.52 15.5874C138.522 16.5291 137.293 17 135.831 17C134.369 17 133.14 16.5291 132.143 15.5874ZM143.934 7.13986H145.982V15.4056H149.234V16.9021H143.934V7.13986ZM159.632 11.993C159.632 11.0233 159.346 10.2494 158.775 9.67133C158.204 9.09324 157.459 8.8042 156.539 8.8042C155.619 8.8042 154.871 9.09557 154.295 9.67832C153.719 10.2611 153.431 11.035 153.431 12C153.431 12.965 153.719 13.7389 154.295 14.3217C154.871 14.9044 155.619 15.1958 156.539 15.1958C157.459 15.1958 158.204 14.9044 158.775 14.3217C159.346 13.7389 159.632 12.9627 159.632 11.993ZM152.85 15.5874C151.853 14.6457 151.355 13.4499 151.355 12C151.355 10.5501 151.856 9.35432 152.858 8.41259C153.86 7.47086 155.089 7 156.546 7C158.003 7 159.23 7.47086 160.227 8.41259C161.224 9.35432 161.723 10.5501 161.723 12C161.723 13.4499 161.224 14.6457 160.227 15.5874C159.23 16.5291 158.001 17 156.539 17C155.077 17 153.847 16.5291 152.85 15.5874ZM164.076 11.993C164.076 10.5478 164.577 9.35432 165.579 8.41259C166.581 7.47086 167.808 7 169.26 7C170.363 7 171.344 7.27039 172.2 7.81119C173.057 8.35198 173.669 9.11188 174.037 10.0909H171.583C171.128 9.2331 170.354 8.8042 169.26 8.8042C168.34 8.8042 167.592 9.09557 167.016 9.67832C166.44 10.2611 166.152 11.035 166.152 12C166.152 12.965 166.44 13.7389 167.016 14.3217C167.592 14.9044 168.299 15.1958 169.136 15.1958C169.974 15.1958 170.632 14.9977 171.111 14.6014C171.59 14.2051 171.888 13.6713 172.004 13H168.635V11.5035H174.197V13C174.023 14.0629 173.481 14.993 172.571 15.7902C171.661 16.5874 170.516 16.986 169.136 16.986C167.757 16.986 166.568 16.5152 165.571 15.5734C164.574 14.6317 164.076 13.4382 164.076 11.993ZM177.116 16.9021V7.13986H179.163V16.9021H177.116ZM188.501 7.11189V8.62238H184.696V11.1818H188.065V12.6923H184.696V15.3916H188.501V16.9021H182.649V7.11189H188.501ZM194.186 8.88112C193.93 9.08159 193.801 9.35897 193.801 9.71329C193.801 10.0676 193.896 10.345 194.084 10.5455C194.273 10.7459 194.522 10.8998 194.832 11.007C195.142 11.1142 195.481 11.2098 195.849 11.2937C196.217 11.3776 196.585 11.4802 196.952 11.6014C197.32 11.7226 197.659 11.8718 197.969 12.049C198.279 12.2261 198.528 12.4848 198.717 12.8252C198.906 13.1655 199 13.5781 199 14.0629C199 14.8648 198.668 15.5548 198.005 16.1329C197.342 16.711 196.461 17 195.362 17C194.264 17 193.375 16.7506 192.698 16.2517C192.02 15.7529 191.681 15.0513 191.681 14.1469H193.859C193.937 15.0047 194.445 15.4336 195.384 15.4336C195.849 15.4336 196.217 15.317 196.488 15.0839C196.759 14.8508 196.894 14.5408 196.894 14.1538C196.894 13.7669 196.715 13.4615 196.357 13.2378C195.999 13.014 195.566 12.8462 195.057 12.7343C194.549 12.6224 194.038 12.4872 193.525 12.3287C193.012 12.1702 192.577 11.8928 192.218 11.4965C191.86 11.1002 191.681 10.5758 191.681 9.92308C191.681 9.03729 192.015 8.32867 192.683 7.7972C193.351 7.26573 194.21 7 195.261 7C196.311 7 197.156 7.23077 197.795 7.69231C198.434 8.15385 198.782 8.85547 198.84 9.7972H196.604C196.565 9.42424 196.42 9.12821 196.168 8.90909C195.917 8.68998 195.587 8.58042 195.181 8.58042C194.774 8.58042 194.443 8.68065 194.186 8.88112Z" fill="white"/>
</g>
</svg>
